<?xml version="1.0" encoding="UTF-8"?>
<svg xmlns="http://www.w3.org/2000/svg" xmlns:xlink="http://www.w3.org/1999/xlink" width="600pt" height="599.999999pt" viewBox="0 0 600 599.999999" version="1.2">
    <g id="surface1">
        <path style=" stroke:none;fill-rule:nonzero;fill:rgb(13.328552%,29.019165%,98.429871%);fill-opacity:1;" d="M 313.476562 340.375 C 310.050781 376.179688 288.039062 409.546875 251.894531 418.597656 C 215.160156 427.796875 179.285156 408.183594 158.5 378.257812 C 136.582031 346.6875 132.25 304.523438 149.496094 269.847656 C 157.28125 254.203125 169.328125 240.640625 184.550781 231.941406 C 199.855469 223.203125 219.964844 218.503906 237.417969 222.339844 C 257.558594 226.769531 274.859375 240.914062 287.4375 256.753906 C 302.128906 275.273438 311.707031 298.125 313.601562 321.765625 C 314.097656 327.953125 314.0625 334.191406 313.476562 340.375 Z M 489.1875 296.292969 C 488.300781 257.039062 475.421875 218.730469 451.855469 187.3125 C 447.65625 181.710938 443.15625 176.347656 438.375 171.246094 C 407.347656 138.128906 364.816406 117.03125 319.648438 112.609375 C 274.550781 108.195312 227.753906 120.296875 191.058594 147.066406 C 155.8125 172.777344 129.101562 210.761719 118.773438 253.28125 C 109.773438 290.335938 111.21875 329.480469 124.425781 365.375 C 134.929688 393.929688 152.628906 418.96875 174.65625 439.746094 C 200.265625 463.914062 234.636719 480.15625 269.203125 485.855469 C 306.691406 492.035156 345.957031 487.136719 380.382812 470.945312 C 413.734375 455.265625 440.746094 430.863281 460.582031 399.808594 C 479.992188 369.410156 489.984375 332.402344 489.183594 296.296875 "/>
        <path style=" stroke:none;fill-rule:nonzero;fill:rgb(13.328552%,29.019165%,98.429871%);fill-opacity:1;" d="M 225 385.925781 C 199.210938 390.46875 177.550781 357.351562 194.167969 336.164062 C 197.503906 331.902344 202.574219 329.199219 207.625 327.550781 C 209.464844 326.949219 210.867188 326.371094 212.625 326.863281 C 214.472656 327.375 216.402344 328.839844 218.042969 329.785156 C 227.996094 335.519531 237.175781 343.398438 240.320312 354.925781 C 243.859375 367.867188 239.550781 382.9375 225 385.925781 Z M 197.695312 282.464844 C 198.640625 272.667969 205.199219 262.839844 215.082031 260.371094 C 227.015625 257.398438 237.535156 264.457031 240.421875 276.132812 C 242.578125 286.085938 239.84375 297.1875 232.433594 304.320312 C 229.074219 307.550781 224.875 310.023438 220.425781 311.429688 C 216.09375 312.800781 211.855469 309.015625 208.59375 306.4375 C 200.957031 300.417969 196.742188 292.339844 197.695312 282.464844 Z M 239.777344 325.097656 C 238.683594 324.320312 233.796875 322.117188 233.339844 320.953125 C 232.828125 319.65625 234.636719 319.421875 235.78125 318.871094 C 237.46875 318.042969 239.125 317.152344 240.707031 316.148438 C 255.550781 306.75 262.308594 288.082031 257.070312 271.320312 C 252.65625 257.199219 241.023438 247.4375 226.339844 245.78125 C 210.859375 244.03125 196.132812 251.914062 188.273438 265.109375 C 183.359375 273.363281 181.859375 281.769531 182.929688 291.285156 C 183.464844 296.066406 184.828125 300.78125 187.09375 305.03125 C 189.5 309.542969 193.0625 312.84375 196.363281 316.644531 C 189.953125 320.796875 183.417969 323.105469 178.726562 329.585938 C 174.683594 335.1875 172.15625 341.347656 172.128906 348.3125 C 172.074219 363.28125 178.238281 376.78125 189.65625 386.527344 C 206.730469 401.109375 238.15625 406.746094 253.636719 386.871094 C 263.8125 373.804688 263.359375 355.234375 255.132812 341.296875 C 251.300781 334.816406 245.875 329.441406 239.777344 325.097656 "/>
    </g>
</svg>
